<svg width="12" height="12" viewBox="0 0 12 12" fill="none" xmlns="http://www.w3.org/2000/svg">
<path d="M6.60629 7.02286C6.4539 6.89471 6.27494 6.79583 6.08004 6.73203C5.88509 6.66824 5.67814 6.64084 5.47141 6.65151C5.26684 6.64247 5.06232 6.6706 4.86971 6.73435C4.67715 6.79811 4.5003 6.89617 4.3495 7.02286C4.22952 7.13139 4.15628 7.27579 4.14317 7.42959C4.10247 7.78625 4.10247 8.14579 4.14317 8.50245C4.18184 8.93865 4.25923 9.51632 4.36239 10.1058C4.40287 10.3783 4.46318 10.6481 4.5429 10.9134C4.61451 11.0741 4.7412 11.2093 4.90397 11.2985C5.06673 11.3878 5.25682 11.4264 5.44563 11.4085C5.63536 11.4268 5.82642 11.3884 5.99029 11.2992C6.1542 11.2099 6.28205 11.0746 6.3548 10.9134C6.43453 10.6481 6.49487 10.3783 6.53535 10.1058C6.63208 9.51632 6.70946 8.92685 6.74813 8.50245C6.78883 8.14579 6.78883 7.78625 6.74813 7.42959C6.75294 7.2832 6.70288 7.1397 6.60629 7.02286ZM4.22051 5.02459C4.22051 5.25774 4.29618 5.48567 4.43788 5.67957C4.57954 5.87343 4.78098 6.02454 5.01663 6.11378C5.25227 6.20301 5.51154 6.22634 5.76171 6.18087C6.01188 6.13539 6.24165 6.02308 6.42199 5.8582C6.60236 5.69333 6.72518 5.48327 6.77493 5.2546C6.82468 5.0259 6.79916 4.78885 6.70156 4.57341C6.60395 4.35802 6.43863 4.17389 6.22656 4.04435C6.01453 3.91481 5.76519 3.84564 5.51012 3.84564C5.16809 3.84564 4.84009 3.96985 4.59822 4.19094C4.35639 4.41204 4.22051 4.7119 4.22051 5.02459ZM5.47141 0.444443C4.18612 0.449817 2.94423 0.869939 1.96469 1.63072C0.985109 2.3915 0.330877 3.444 0.117347 4.60268C-0.0962274 5.7614 0.144629 6.95178 0.797404 7.96399C1.45018 8.97615 2.47293 9.74515 3.68534 10.1353C3.69752 10.1382 3.71032 10.1384 3.72264 10.1358C3.73496 10.1332 3.74635 10.1279 3.75588 10.1204C3.76542 10.1128 3.77279 10.1032 3.77738 10.0924C3.78193 10.0817 3.78352 10.0701 3.78206 10.0586C3.74984 9.88768 3.72401 9.71674 3.69823 9.5517C3.69567 9.52198 3.68406 9.49353 3.66468 9.46955C3.6453 9.44557 3.61894 9.42705 3.58862 9.4161C2.58983 9.01079 1.77412 8.30359 1.27841 7.41327C0.782748 6.52299 0.637335 5.50383 0.866669 4.52708C1.096 3.55034 1.68605 2.67553 2.5377 2.04958C3.38934 1.42363 4.45068 1.08472 5.54341 1.08977C6.63618 1.09486 7.69372 1.44358 8.5384 2.07739C9.38303 2.71119 9.96336 3.59141 10.1818 4.57023C10.4003 5.54905 10.2436 6.56679 9.73809 7.45247C9.23258 8.33815 8.40905 9.03774 7.40581 9.43381C7.37548 9.44476 7.34913 9.46324 7.32975 9.48722C7.31037 9.51119 7.29876 9.53965 7.2962 9.56937C7.2962 9.7344 7.24463 9.90538 7.21236 10.0763C7.21091 10.0878 7.21254 10.0994 7.21709 10.1102C7.22163 10.1209 7.22901 10.1305 7.23854 10.138C7.24808 10.1456 7.25951 10.1509 7.27178 10.1535C7.2841 10.1561 7.2969 10.1559 7.30909 10.1529C8.54007 9.77092 9.58133 8.99964 10.2453 7.97795C10.9093 6.95626 11.1524 5.75142 10.9307 4.58041C10.7091 3.40944 10.0373 2.34928 9.03635 1.59099C8.03545 0.83269 6.77122 0.426083 5.47141 0.444443ZM5.37473 2.73155C5.97652 2.70993 6.57116 2.85701 7.07891 3.15314C7.58672 3.44922 7.98327 3.88017 8.21552 4.38818C8.44777 4.8962 8.50454 5.45697 8.37828 5.99531C8.25198 6.53366 7.94866 7.02384 7.50897 7.40012C7.4858 7.42198 7.46761 7.44783 7.45543 7.47616C7.44324 7.5045 7.43733 7.53474 7.43808 7.5652C7.45194 7.76146 7.45194 7.95837 7.43808 8.15467C7.43848 8.16688 7.44241 8.17877 7.44934 8.18923C7.45631 8.19965 7.46611 8.20824 7.47781 8.21419C7.48951 8.22013 7.50266 8.22318 7.51604 8.2231C7.52941 8.22298 7.54253 8.21972 7.55414 8.21362C8.20038 7.81157 8.68862 7.23073 8.94727 6.55637C9.20592 5.88202 9.22132 5.14965 8.99124 4.46667C8.76115 3.78373 8.29772 3.18619 7.66887 2.76171C7.04002 2.33723 6.27891 2.1082 5.49723 2.1082C4.71556 2.1082 3.95445 2.33723 3.3256 2.76171C2.69675 3.18619 2.23327 3.78373 2.00319 4.46667C1.7731 5.14965 1.78851 5.88202 2.04716 6.55637C2.3058 7.23073 2.79409 7.81157 3.44033 8.21362C3.45137 8.22021 3.46426 8.22388 3.4775 8.2242C3.4907 8.22449 3.50377 8.22139 3.51516 8.21525C3.52655 8.20914 3.53586 8.20018 3.542 8.18948C3.54814 8.17877 3.55092 8.16672 3.54994 8.15467C3.54994 7.95422 3.54994 7.77151 3.54994 7.5652C3.55326 7.5345 3.54858 7.50352 3.53626 7.47486C3.5239 7.44616 3.5043 7.42056 3.479 7.40012C3.05525 7.03324 2.75961 6.56004 2.62925 6.03997C2.49889 5.51987 2.53964 4.97619 2.74637 4.47721C2.95315 3.97828 3.31664 3.54635 3.79115 3.23573C4.26572 2.92512 4.83011 2.7497 5.4134 2.73155H5.37473Z" fill="black"/>
</svg>
