<svg width="83" height="84" viewBox="0 0 83 84" fill="none" xmlns="http://www.w3.org/2000/svg">
<g id="Sparkle">
<g id="Group">
<path id="Vector" d="M42.9854 41.3551C42.814 40.6696 42.714 40.1126 42.5283 39.5698C40.6716 34.0853 37.6865 29.2006 34.2872 24.5587C33.8873 24.016 33.3874 23.5018 32.8304 23.159C32.5304 22.9733 31.9305 23.0019 31.5878 23.1876C31.3307 23.3304 31.145 23.8874 31.2021 24.2016C31.3021 24.8015 31.5163 25.4157 31.8163 25.9584C33.7873 29.5434 35.7726 33.114 37.7864 36.6704C38.5434 37.9987 39.3433 39.3127 40.1288 40.6267C40.3859 41.0695 40.6716 41.498 40.9715 41.8979C41.3 42.3549 41.7999 42.6263 42.2998 42.3264C42.6283 42.1264 42.9854 41.9836 42.9854 41.3551Z" fill="#CD4631"/>
<path id="Vector_2" d="M22.7606 62.6223C23.4462 62.5081 24.246 62.4224 25.0173 62.251C28.0595 61.5654 31.1017 60.8799 34.1297 60.1657C34.7867 60.0086 35.4294 59.7372 36.015 59.423C36.8005 59.0088 37.0719 58.4232 36.9433 57.7805C36.8148 57.1378 36.3006 56.7379 35.4008 56.7236C34.7867 56.7093 34.1297 56.7236 33.5441 56.8664C29.702 57.8376 25.86 58.8374 22.0322 59.8515C21.6037 59.9658 21.161 60.1657 20.8325 60.4514C20.0041 61.1512 20.2612 62.251 21.3181 62.5224C21.7323 62.6223 22.2036 62.5795 22.7606 62.6223Z" fill="#CD4631"/>
<path id="Vector_3" d="M62.895 24.3299C62.8378 23.6586 62.695 22.9873 62.5236 22.3303C62.3665 21.7447 61.9666 21.3305 61.3239 21.2734C60.7811 21.2305 60.1955 21.7733 60.1098 22.4874C59.9956 23.4443 59.8956 24.4156 59.9385 25.3725C60.067 28.2576 60.2527 31.157 60.4526 34.0421C60.524 34.999 60.6526 35.956 60.8097 36.9129C60.8668 37.2414 60.9811 37.5842 61.1668 37.8413C61.6667 38.5697 62.5808 38.5126 62.9378 37.727C63.1378 37.2843 63.2235 36.7415 63.2235 36.2559C63.2949 34.6562 63.0806 26.7008 62.895 24.3299Z" fill="#CD4631"/>
</g>
</g>
</svg>
