<svg width="195" height="234" viewBox="0 0 195 234" fill="none" xmlns="http://www.w3.org/2000/svg">
<g id="Scribble">
<g id="Group">
<path id="Vector" d="M91.0287 157.587C92.0791 153.749 92.887 150.477 93.8768 147.265C95.5331 141.812 97.4116 136.499 101.27 132.076C105.188 127.592 110.076 125.895 115.671 127.531C119.105 128.541 122.256 130.48 125.468 132.116C126.72 132.763 127.811 133.773 129.528 135.005C128.881 131.935 128.336 129.531 127.892 127.107C126.781 121.189 125.427 115.311 124.72 109.352C123.71 101.192 127.831 96.3039 136.072 95.5767C139.304 95.2939 142.637 95.7989 145.929 95.9807C146.919 96.0413 147.888 96.2433 149.06 96.4049C146.03 91.5572 143.081 86.9923 140.334 82.3465C133.931 71.4998 141.142 64.8948 149.827 63.7637C152.15 63.4607 154.594 63.7233 156.958 63.9455C158.533 64.1475 159.826 65.1574 159.583 66.8945C159.381 68.47 157.967 68.9144 156.473 68.9548C154.998 69.0154 153.504 68.975 152.069 69.1971C150.393 69.4597 148.696 69.7425 147.101 70.3283C142.616 71.9846 141.283 74.772 143.182 79.1753C144.515 82.2859 146.313 85.2148 148.05 88.1234C149.666 90.83 151.423 93.4761 153.18 96.1221C154.069 97.4956 154.917 98.9095 154.069 100.525C153.1 102.384 151.261 102.242 149.565 102.121C147.404 101.98 145.283 101.515 143.121 101.495C140.395 101.434 137.648 101.434 134.981 101.798C131.366 102.303 129.952 103.878 129.972 107.534C129.992 111.029 130.214 114.604 130.8 118.058C132.093 125.451 133.628 132.763 135.183 140.095C135.547 141.832 135.527 143.306 134.012 144.337C132.578 145.326 131.204 144.72 129.932 143.771C127.669 142.074 125.447 140.256 123.104 138.681C121.044 137.307 118.903 135.934 116.641 134.964C110.601 132.359 106.562 133.651 102.784 139.004C99.9364 143.024 97.9569 147.467 96.543 152.153C95.5129 155.527 94.7049 158.96 93.8162 162.354C93.3516 164.152 92.8668 166.01 90.6248 166.272C88.5039 166.495 87.3728 164.96 86.3426 163.404C85.9185 162.738 85.5953 162.01 85.2519 161.304C84.5853 159.869 83.8178 158.456 83.2926 156.961C79.3135 145.872 70.628 142.155 59.7813 142.014C57.7816 141.993 55.7617 142.599 53.762 142.983C52.7723 143.165 51.8027 143.65 50.813 143.71C50.106 143.771 49.0355 143.549 48.7527 143.064C48.4295 142.539 48.6719 141.489 48.8941 140.862C49.3991 139.509 50.7726 138.378 52.0249 137.853C54.5094 136.823 57.1554 135.914 59.8014 135.651C65.6591 135.045 71.335 136.237 76.8088 138.439C81.4747 140.317 84.6257 143.832 86.8476 148.195C88.2615 151.063 89.433 154.012 91.0287 157.587Z" fill="black"/>
</g>
</g>
</svg>
