<svg width="18" height="17" viewBox="0 0 18 17" fill="none" xmlns="http://www.w3.org/2000/svg">
<g id="google podcast" clip-path="url(#clip0_314_2627)">
<g id="logo">
<path id="Vector" d="M8.15845 5.3999V7.89323V8.8898V11.3831H10.2152V8.8898V7.89323V5.3999H8.15845Z" fill="black"/>
<path id="Vector_2" d="M1.98835 8.85999C2.55645 8.85999 3.01698 8.39946 3.01698 7.83136C3.01698 7.26326 2.55645 6.80273 1.98835 6.80273C1.42025 6.80273 0.959717 7.26326 0.959717 7.83136C0.959717 8.39946 1.42025 8.85999 1.98835 8.85999Z" fill="black"/>
<path id="Vector_3" d="M1.98835 9.98109C2.55645 9.98109 3.01698 9.52056 3.01698 8.95246C3.01698 8.38436 2.55645 7.92383 1.98835 7.92383C1.42025 7.92383 0.959717 8.38436 0.959717 8.95246C0.959717 9.52056 1.42025 9.98109 1.98835 9.98109Z" fill="black"/>
<path id="Vector_4" d="M3.01698 7.83105H0.959717V8.95319H3.01698V7.83105Z" fill="black"/>
<path id="Vector_5" d="M16.3853 9.98109C16.9534 9.98109 17.4139 9.52056 17.4139 8.95246C17.4139 8.38436 16.9534 7.92383 16.3853 7.92383C15.8172 7.92383 15.3567 8.38436 15.3567 8.95246C15.3567 9.52056 15.8172 9.98109 16.3853 9.98109Z" fill="black"/>
<path id="Vector_6" d="M16.3853 8.85999C16.9534 8.85999 17.4139 8.39946 17.4139 7.83136C17.4139 7.26326 16.9534 6.80273 16.3853 6.80273C15.8172 6.80273 15.3567 7.26326 15.3567 7.83136C15.3567 8.39946 15.8172 8.85999 16.3853 8.85999Z" fill="black"/>
<path id="Vector_7" d="M15.3567 8.95319H17.4139V7.83105H15.3567V8.95319Z" fill="black"/>
<path id="Vector_8" d="M5.54084 12.2252C6.10892 12.2252 6.56946 11.7647 6.56946 11.1966C6.56946 10.6285 6.10892 10.168 5.54084 10.168C4.97274 10.168 4.51221 10.6285 4.51221 11.1966C4.51221 11.7647 4.97274 12.2252 5.54084 12.2252Z" fill="black"/>
<path id="Vector_9" d="M5.54084 13.3473C6.10892 13.3473 6.56946 12.8868 6.56946 12.3187C6.56946 11.7506 6.10892 11.29 5.54084 11.29C4.97274 11.29 4.51221 11.7506 4.51221 12.3187C4.51221 12.8868 4.97274 13.3473 5.54084 13.3473Z" fill="black"/>
<path id="Vector_10" d="M6.56946 11.1968H4.51221V12.3189H6.56946V11.1968Z" fill="black"/>
<path id="Vector_11" d="M5.54084 5.49425C6.10892 5.49425 6.56946 5.03372 6.56946 4.46564C6.56946 3.89755 6.10892 3.43701 5.54084 3.43701C4.97274 3.43701 4.51221 3.89755 4.51221 4.46564C4.51221 5.03372 4.97274 5.49425 5.54084 5.49425Z" fill="black"/>
<path id="Vector_12" d="M5.54084 9.13929C6.10892 9.13929 6.56946 8.67876 6.56946 8.11066C6.56946 7.54256 6.10892 7.08203 5.54084 7.08203C4.97274 7.08203 4.51221 7.54256 4.51221 8.11066C4.51221 8.67876 4.97274 9.13929 5.54084 9.13929Z" fill="black"/>
<path id="Vector_13" d="M6.56892 4.46533H4.51221V8.13473H6.56892V4.46533Z" fill="black"/>
<path id="Vector_14" d="M12.8328 6.61634C13.4009 6.61634 13.8614 6.15581 13.8614 5.58771C13.8614 5.01961 13.4009 4.55908 12.8328 4.55908C12.2647 4.55908 11.8042 5.01961 11.8042 5.58771C11.8042 6.15581 12.2647 6.61634 12.8328 6.61634Z" fill="black"/>
<path id="Vector_15" d="M12.8328 5.49425C13.4009 5.49425 13.8614 5.03372 13.8614 4.46564C13.8614 3.89755 13.4009 3.43701 12.8328 3.43701C12.2647 3.43701 11.8042 3.89755 11.8042 4.46564C11.8042 5.03372 12.2647 5.49425 12.8328 5.49425Z" fill="black"/>
<path id="Vector_16" d="M11.804 5.58746H13.8612V4.46533H11.804V5.58746Z" fill="black"/>
<path id="Vector_17" d="M9.18707 3.34388C9.7552 3.34388 10.2157 2.88335 10.2157 2.31525C10.2157 1.74715 9.7552 1.28662 9.18707 1.28662C8.61899 1.28662 8.15845 1.74715 8.15845 2.31525C8.15845 2.88335 8.61899 3.34388 9.18707 3.34388Z" fill="black"/>
<path id="Vector_18" d="M9.18707 2.22229C9.7552 2.22229 10.2157 1.76176 10.2157 1.19367C10.2157 0.625572 9.7552 0.165039 9.18707 0.165039C8.61899 0.165039 8.15845 0.625572 8.15845 1.19367C8.15845 1.76176 8.61899 2.22229 9.18707 2.22229Z" fill="black"/>
<path id="Vector_19" d="M8.15845 2.3155H10.2157V1.19336H8.15845V2.3155Z" fill="black"/>
<path id="Vector_20" d="M9.18707 16.6193C9.7552 16.6193 10.2157 16.1587 10.2157 15.5906C10.2157 15.0225 9.7552 14.562 9.18707 14.562C8.61899 14.562 8.15845 15.0225 8.15845 15.5906C8.15845 16.1587 8.61899 16.6193 9.18707 16.6193Z" fill="black"/>
<path id="Vector_21" d="M9.18707 15.4977C9.7552 15.4977 10.2157 15.0372 10.2157 14.4691C10.2157 13.901 9.7552 13.4404 9.18707 13.4404C8.61899 13.4404 8.15845 13.901 8.15845 14.4691C8.15845 15.0372 8.61899 15.4977 9.18707 15.4977Z" fill="black"/>
<path id="Vector_22" d="M8.15845 15.5914H10.2157V14.4692H8.15845V15.5914Z" fill="black"/>
<path id="Vector_23" d="M12.8328 13.3473C13.4009 13.3473 13.8614 12.8868 13.8614 12.3187C13.8614 11.7506 13.4009 11.29 12.8328 11.29C12.2647 11.29 11.8042 11.7506 11.8042 12.3187C11.8042 12.8868 12.2647 13.3473 12.8328 13.3473Z" fill="black"/>
<path id="Vector_24" d="M12.8328 9.70227C13.4009 9.70227 13.8614 9.24174 13.8614 8.67365C13.8614 8.10555 13.4009 7.64502 12.8328 7.64502C12.2647 7.64502 11.8042 8.10555 11.8042 8.67365C11.8042 9.24174 12.2647 9.70227 12.8328 9.70227Z" fill="black"/>
<path id="Vector_25" d="M11.804 12.3184H13.8607V8.67236H11.804V12.3184Z" fill="black"/>
<path id="Vector_26" d="M9.18707 6.42886C9.7552 6.42886 10.2157 5.96829 10.2157 5.40023C10.2157 4.83213 9.7552 4.37158 9.18707 4.37158C8.61899 4.37158 8.15845 4.83213 8.15845 5.40023C8.15845 5.96829 8.61899 6.42886 9.18707 6.42886Z" fill="black"/>
<path id="Vector_27" d="M9.18707 12.4127C9.7552 12.4127 10.2157 11.9522 10.2157 11.3841C10.2157 10.816 9.7552 10.3555 9.18707 10.3555C8.61899 10.3555 8.15845 10.816 8.15845 11.3841C8.15845 11.9522 8.61899 12.4127 9.18707 12.4127Z" fill="black"/>
</g>
</g>
<defs>
<clipPath id="clip0_314_2627">
<rect width="16.4537" height="16.4537" fill="white" transform="translate(0.959961 0.163574)"/>
</clipPath>
</defs>
</svg>
