<svg width="17" height="17" viewBox="0 0 17 17" fill="none" xmlns="http://www.w3.org/2000/svg">
<g id="youtube">
<path id="Subtract" fill-rule="evenodd" clip-rule="evenodd" d="M3.34676 3.40921C2.32842 3.45966 1.51041 4.25703 1.44432 5.27447C1.38101 6.24926 1.3186 7.4487 1.3186 8.38981C1.3186 9.33093 1.38101 10.5304 1.44432 11.5052C1.51041 12.5226 2.32842 13.32 3.34676 13.3704C4.82137 13.4435 6.92903 13.5316 8.51708 13.5316C10.1051 13.5316 12.2128 13.4435 13.6874 13.3704C14.7057 13.32 15.5237 12.5226 15.5898 11.5052C15.6532 10.5304 15.7156 9.33093 15.7156 8.38981C15.7156 7.4487 15.6532 6.24926 15.5898 5.27447C15.5237 4.25703 14.7057 3.45966 13.6874 3.40921C12.2128 3.33616 10.1051 3.24805 8.51708 3.24805C6.92903 3.24805 4.82137 3.33616 3.34676 3.40921ZM11.0878 8.38998L6.9744 10.4467V6.33327L11.0878 8.38998Z" fill="black"/>
</g>
</svg>
